<?xml version="1.0" standalone="no"?>
<!DOCTYPE svg PUBLIC "-//W3C//DTD SVG 20010904//EN"
 "http://www.w3.org/TR/2001/REC-SVG-20010904/DTD/svg10.dtd">
<svg version="1.0" xmlns="http://www.w3.org/2000/svg"
 width="1759.000000pt" height="1586.000000pt" viewBox="0 0 1759.000000 1586.000000"
 preserveAspectRatio="xMidYMid meet">
<metadata>
Created by potrace 1.16, written by Peter Selinger 2001-2019
</metadata>
<g transform="translate(0.000000,1586.000000) scale(0.100000,-0.100000)"
fill="#000000" stroke="none">
<path d="M14555 15813 c-16 -2 -129 -15 -250 -29 -1000 -115 -2146 -340 -3040
-597 -1832 -528 -2835 -1198 -2946 -1966 -25 -177 6 -407 78 -577 16 -38 433
-792 926 -1676 493 -883 917 -1648 943 -1700 61 -121 92 -166 183 -261 269
-282 760 -515 1571 -748 243 -70 871 -229 907 -229 29 -1 -28 -23 -286 -109
-482 -162 -1017 -315 -1634 -468 -301 -75 -349 -85 -361 -72 -8 8 -593 986
-1300 2174 -708 1188 -1299 2171 -1313 2184 -20 17 -34 22 -57 18 -50 -9
-3779 -1534 -3799 -1554 -10 -10 -868 -1905 -1907 -4211 -1331 -2952 -1890
-4204 -1890 -4228 0 -45 29 -74 76 -74 31 0 357 211 2339 1511 l2304 1511 48
112 c27 61 222 517 434 1013 340 798 385 899 396 879 605 -1139 3568 -6655
3580 -6664 9 -6 33 -12 52 -12 33 0 167 112 1726 1451 930 798 1723 1480 1763
1516 63 57 72 69 72 99 0 28 -37 97 -171 321 -94 157 -167 288 -162 292 4 4
112 29 238 56 314 66 667 151 952 229 1946 532 3019 1205 3167 1986 20 101 20
269 1 372 -20 114 -69 253 -121 344 -25 43 -455 819 -956 1724 -501 905 -924
1665 -941 1690 -16 25 -76 91 -132 146 -383 380 -1176 674 -2760 1024 -55 12
-104 26 -108 30 -14 13 387 157 733 263 1049 323 2341 578 3575 706 78 8 92
12 112 36 13 14 23 39 23 56 0 21 -282 538 -936 1717 -515 928 -945 1695 -956
1705 -20 17 -88 21 -173 10z m944 -1760 c485 -872 879 -1588 877 -1590 -1 -2
-115 -17 -252 -33 -1288 -155 -2607 -441 -3599 -781 -1099 -375 -1825 -813
-2154 -1298 -90 -132 -173 -334 -187 -457 -4 -30 -10 -56 -13 -58 -7 -4 -1537
2735 -1593 2852 -95 199 -113 441 -47 642 176 540 903 1046 2114 1471 989 347
2347 645 3635 798 226 27 281 34 327 40 6 0 408 -713 892 -1586z m-6290 -4598
c693 -1164 1261 -2119 1261 -2124 0 -15 -809 -185 -1290 -271 -355 -63 -327
-57 -350 -80 -49 -49 -88 26 934 -1816 560 -1010 963 -1724 976 -1733 19 -13
40 -13 156 -3 350 32 1061 133 1514 216 129 24 236 43 237 42 15 -11 332 -561
326 -566 -49 -44 -3334 -2861 -3338 -2863 -5 -2 -5264 9807 -5272 9834 -3 12
361 165 1784 746 983 402 1791 731 1794 732 4 1 574 -951 1268 -2114z m3092
1645 c1105 -249 1681 -424 2134 -645 331 -161 532 -325 640 -520 15 -27 364
-657 775 -1400 411 -742 752 -1360 759 -1373 11 -20 6 -19 -51 14 -201 115
-512 245 -838 352 -463 152 -871 256 -1939 493 -639 142 -961 216 -1251 289
-1042 261 -1634 511 -1936 814 -88 89 -108 115 -147 197 -71 147 -92 237 -92
404 0 116 4 154 23 220 82 284 317 564 687 817 61 42 151 100 200 130 217 131
584 311 619 303 12 -3 199 -45 417 -95z m-7257 -2643 c433 -808 794 -1483 803
-1501 l15 -32 -446 -1044 c-245 -574 -451 -1049 -458 -1056 -22 -20 -4289
-2816 -4293 -2813 -2 3 3486 7753 3555 7899 16 33 24 40 30 30 4 -8 362 -676
794 -1483z m8807 -637 c1375 -307 1969 -481 2454 -720 216 -106 357 -201 476
-319 110 -110 171 -211 216 -358 24 -78 27 -105 27 -238 1 -115 -4 -165 -17
-215 -26 -91 -96 -235 -159 -327 -68 -100 -237 -274 -360 -374 -751 -604
-2317 -1142 -4318 -1483 -396 -68 -1064 -160 -1293 -178 l-38 -3 -899 1620
c-495 890 -898 1620 -896 1622 2 2 88 19 192 39 1380 255 2711 594 3669 934
121 43 249 89 285 103 36 14 68 26 71 26 3 1 269 -58 590 -129z"/>
</g>
</svg>
